# xmcd CD database file
# Copyright (C) 1993-1998 Ti Kan
#
# Track frame offsets:
#  150
#  24200
#  46260
#  60442
#  80387
#  107425
#  123195
#  145397
#
# Disc length: 2188 seconds
#
# Revision: 1
# Processed by: cddbd v1.4b41PL1 Copyright (c) Steve Scherf et al.
# Submitted via: CDWizzard Release:4.35
#
DISCID=58088a08
DTITLE=Tyrone Davis - Flashin Back
DYEAR=1900
DGENRE=
TTITLE0=It's A Miracle
TTITLE1=it Keeps on Flashin Back
TTITLE2=Try It Baby
TTITLE3=Wrong Doers
TTITLE4=Do You Feel It?
TTITLE5=I'M Still In Love With You
TTITLE6=Be Honest With Me
TTITLE7=All the Love I Need
EXTD=
EXTT0=
EXTT1=
EXTT2=
EXTT3=
EXTT4=
EXTT5=
EXTT6=
EXTT7=
PLAYORDER=
